<svg xmlns="http://www.w3.org/2000/svg" viewBox="0 0 520 320" fill="none" role="img" aria-label="Ilustração de quadra e zonas de ataque">
  <defs>
    <linearGradient id="bgA" x1="0" y1="0" x2="520" y2="320" gradientUnits="userSpaceOnUse">
      <stop stop-color="#141414"/>
      <stop offset="1" stop-color="#0a0a0a"/>
    </linearGradient>
    <radialGradient id="glowA" cx="0" cy="0" r="1" gradientTransform="translate(360 200) rotate(-60) scale(200)" gradientUnits="userSpaceOnUse">
      <stop stop-color="#f97316" stop-opacity="0.35"/>
      <stop offset="1" stop-color="#f97316" stop-opacity="0"/>
    </radialGradient>
  </defs>
  <rect width="520" height="320" fill="url(#bgA)"/>
  <rect width="520" height="320" fill="url(#glowA)"/>
  <g transform="translate(130 40) skewX(-18)">
    <rect x="0" y="0" width="260" height="240" rx="4" fill="#0f0f0f" stroke="#3f3f46" stroke-width="2"/>
    <line x1="0" y1="120" x2="260" y2="120" stroke="#f97316" stroke-width="3"/>
    <line x1="0" y1="60" x2="260" y2="60" stroke="#3f3f46" stroke-width="1.5" opacity="0.6"/>
    <line x1="0" y1="180" x2="260" y2="180" stroke="#3f3f46" stroke-width="1.5" opacity="0.6"/>
    <line x1="86" y1="0" x2="86" y2="240" stroke="#3f3f46" stroke-width="1.5" opacity="0.4"/>
    <line x1="173" y1="0" x2="173" y2="240" stroke="#3f3f46" stroke-width="1.5" opacity="0.4"/>
    <circle cx="43" cy="30" r="16" fill="#f97316" opacity="0.25"/>
    <circle cx="216" cy="30" r="20" fill="#f97316" opacity="0.4"/>
    <circle cx="130" cy="30" r="12" fill="#f97316" opacity="0.2"/>
  </g>
  <g transform="translate(300 150)">
    <circle r="30" fill="none" stroke="#f97316" stroke-width="3"/>
    <circle r="16" fill="none" stroke="#f97316" stroke-width="3"/>
    <circle r="4" fill="#f97316"/>
    <line x1="-42" y1="0" x2="-34" y2="0" stroke="#f97316" stroke-width="3"/>
    <line x1="34" y1="0" x2="42" y2="0" stroke="#f97316" stroke-width="3"/>
    <line x1="0" y1="-42" x2="0" y2="-34" stroke="#f97316" stroke-width="3"/>
    <line x1="0" y1="34" x2="0" y2="42" stroke="#f97316" stroke-width="3"/>
  </g>
</svg>
