<svg xmlns="http://www.w3.org/2000/svg" viewBox="0 0 520 320" fill="none" role="img" aria-label="Ilustração de análise de vôlei">
  <defs>
    <linearGradient id="bgV" x1="0" y1="0" x2="520" y2="320" gradientUnits="userSpaceOnUse">
      <stop stop-color="#141414"/>
      <stop offset="1" stop-color="#0a0a0a"/>
    </linearGradient>
    <radialGradient id="glowV" cx="0" cy="0" r="1" gradientTransform="translate(370 90) rotate(120) scale(210)" gradientUnits="userSpaceOnUse">
      <stop stop-color="#f97316" stop-opacity="0.35"/>
      <stop offset="1" stop-color="#f97316" stop-opacity="0"/>
    </radialGradient>
  </defs>
  <rect width="520" height="320" fill="url(#bgV)"/>
  <rect width="520" height="320" fill="url(#glowV)"/>
  <path d="M0 232 L90 200 L170 224 L250 176 L330 208 L410 150 L520 192" stroke="#f97316" stroke-width="3" stroke-linecap="round" stroke-linejoin="round" opacity="0.85"/>
  <circle cx="250" cy="176" r="5" fill="#f97316"/>
  <circle cx="410" cy="150" r="5" fill="#f97316"/>
  <g transform="translate(360 96)">
    <circle r="52" fill="#0a0a0a" stroke="#f97316" stroke-width="3"/>
    <path d="M-52 0 A52 52 0 0 1 34 -39" stroke="#f97316" stroke-width="3" fill="none" opacity="0.7"/>
    <path d="M52 0 A52 52 0 0 1 -34 39" stroke="#f97316" stroke-width="3" fill="none" opacity="0.7"/>
    <path d="M0 -52 A52 52 0 0 1 44 28" stroke="#f97316" stroke-width="3" fill="none" opacity="0.5"/>
  </g>
  <g opacity="0.5" stroke="#3f3f46" stroke-width="2">
    <line x1="40" y1="60" x2="40" y2="270"/>
    <line x1="40" y1="270" x2="200" y2="270"/>
  </g>
</svg>
