<svg xmlns="http://www.w3.org/2000/svg" viewBox="0 0 760 480" fill="none" role="img" aria-label="Ilustração de dados e desempenho">
  <defs>
    <linearGradient id="bgH" x1="0" y1="0" x2="760" y2="480" gradientUnits="userSpaceOnUse">
      <stop stop-color="#141414"/>
      <stop offset="1" stop-color="#0a0a0a"/>
    </linearGradient>
    <radialGradient id="glowH" cx="0" cy="0" r="1" gradientTransform="translate(560 200) rotate(120) scale(320)" gradientUnits="userSpaceOnUse">
      <stop stop-color="#f97316" stop-opacity="0.4"/>
      <stop offset="1" stop-color="#f97316" stop-opacity="0"/>
    </radialGradient>
  </defs>
  <rect width="760" height="480" fill="url(#bgH)"/>
  <rect width="760" height="480" fill="url(#glowH)"/>
  <path d="M40 380 L160 320 L280 344 L400 240 L520 288 L640 168 L760 220" stroke="#f97316" stroke-width="4" stroke-linecap="round" stroke-linejoin="round"/>
  <circle cx="400" cy="240" r="7" fill="#f97316"/>
  <circle cx="640" cy="168" r="7" fill="#f97316"/>
  <g transform="translate(560 300)">
    <circle r="72" fill="#0a0a0a" stroke="#f97316" stroke-width="4"/>
    <path d="M-72 0 A72 72 0 0 1 48 -54" stroke="#f97316" stroke-width="4" fill="none" opacity="0.7"/>
    <path d="M72 0 A72 72 0 0 1 -48 54" stroke="#f97316" stroke-width="4" fill="none" opacity="0.7"/>
    <path d="M0 -72 A72 72 0 0 1 60 40" stroke="#f97316" stroke-width="4" fill="none" opacity="0.5"/>
  </g>
  <g opacity="0.35" stroke="#3f3f46" stroke-width="1.5">
    <line x1="40" y1="80" x2="40" y2="420"/>
    <line x1="40" y1="420" x2="720" y2="420"/>
  </g>
</svg>
